<?xml version="1.0" encoding="UTF-8"?>
<svg width="542px" height="275px" viewBox="0 0 542 275" version="1.1" xmlns="http://www.w3.org/2000/svg" xmlns:xlink="http://www.w3.org/1999/xlink">
    <!-- Generator: Sketch 44.1 (41455) - http://www.bohemiancoding.com/sketch -->
    <title>No News Today</title>
    <desc>Created with Sketch.</desc>
    <defs></defs>
    <g id="Page-1" stroke="none" stroke-width="1" fill="none" fill-rule="evenodd">
        <g id="Desktop-HD-Copy-86" transform="translate(-448.000000, -345.000000)" fill="#000000">
            <path d="M482.9,429.912 L482.9,400.968 C479.876,399.528 476.276,398.808 473.252,399.096 C468.788,399.528 465.62,400.68 465.188,405.72 L462.596,405.72 C462.596,393.768 468.788,387.288 476.996,387.288 L482.9,387.288 L482.9,361.656 C478.868,358.488 472.82,356.04 467.348,356.04 C460.868,356.04 457.412,358.344 453.092,363.096 L451.22,362.376 C454.676,352.872 464.18,345.672 474.404,345.672 C492.692,345.672 505.94,368.136 512.708,377.784 C516.02,379.944 523.364,381.384 527.252,381.384 C532.868,381.384 538.772,380.808 543.668,377.928 L543.668,360.36 C540.068,360.36 536.756,359.064 533.588,357.336 L523.652,364.392 L521.924,362.232 L544.244,345.672 L546.836,345.672 C547.988,348.84 551.588,349.992 554.468,349.992 C557.492,349.992 559.652,348.696 562.676,346.824 L564.404,348.12 C560.948,355.608 554.9,360.36 546.26,360.36 L546.26,446.328 L543.812,446.328 C533.3,437.544 525.236,422.568 518.9,412.056 C511.988,409.032 504.212,408.024 499.46,408.024 C494.852,408.024 490.1,408.456 485.492,409.608 L485.492,429.912 C491.396,429.912 496.868,431.928 501.764,434.952 L513.14,427.176 L515.012,429.048 L492.98,444.168 L488.372,444.168 C486.5,442.584 480.452,439.128 472.1,439.128 C462.452,439.128 451.364,444.888 451.364,455.688 C451.364,466.344 458.564,469.8 468.356,469.8 C471.812,469.8 475.556,468.936 479.156,468.216 L480.164,470.664 C475.988,471.672 472.1,472.392 468.5,472.392 C457.556,472.392 448.772,468.504 448.772,456.12 C448.772,439.416 468.068,429.912 482.9,429.912 Z M485.492,363.528 L485.492,406.728 C490.676,405.72 495.86,405.432 501.044,405.432 C506.372,405.432 511.412,406.44 516.452,408.168 C507.236,392.616 498.164,376.776 485.492,363.528 Z M543.668,428.04 L543.668,380.808 C539.348,382.824 534.452,383.976 529.7,383.976 C524.084,383.976 519.188,383.544 514.292,381.384 L514.004,381.672 C523.652,397.08 533.3,412.776 543.38,428.04 L543.668,428.04 Z M627.332,391.464 L629.06,393.48 L620.132,399.672 L620.132,429.048 C621.716,429.768 623.876,431.064 623.876,432.36 C623.876,433.224 622.436,433.656 620.42,433.656 C605.876,433.656 594.644,439.272 591.188,442.728 L588.164,442.728 C583.844,439.56 577.652,435.096 575.348,435.096 C573.044,435.096 571.892,436.824 570.02,437.832 L567.86,436.104 L576.5,430.344 L576.5,400.392 C575.204,399.96 572.612,397.944 572.612,396.936 C572.612,396.648 572.756,396.216 573.332,396.216 C581.972,396.216 598.1,392.904 605.444,387.144 L608.036,387.144 C611.06,390.024 618.26,394.92 620.852,394.92 C622.724,394.92 625.748,393.048 627.332,391.464 Z M609.188,401.976 L595.652,395.208 L587.444,397.656 L587.444,428.04 L600.692,434.808 C603.284,433.656 606.74,432.648 609.188,432.216 L609.188,401.976 Z M702.788,429.912 L702.788,400.968 C699.764,399.528 696.164,398.808 693.14,399.096 C688.676,399.528 685.508,400.68 685.076,405.72 L682.484,405.72 C682.484,393.768 688.676,387.288 696.884,387.288 L702.788,387.288 L702.788,361.656 C698.756,358.488 692.708,356.04 687.236,356.04 C680.756,356.04 677.3,358.344 672.98,363.096 L671.108,362.376 C674.564,352.872 684.068,345.672 694.292,345.672 C712.58,345.672 725.828,368.136 732.596,377.784 C735.908,379.944 743.252,381.384 747.14,381.384 C752.756,381.384 758.66,380.808 763.556,377.928 L763.556,360.36 C759.956,360.36 756.644,359.064 753.476,357.336 L743.54,364.392 L741.812,362.232 L764.132,345.672 L766.724,345.672 C767.876,348.84 771.476,349.992 774.356,349.992 C777.38,349.992 779.54,348.696 782.564,346.824 L784.292,348.12 C780.836,355.608 774.788,360.36 766.148,360.36 L766.148,446.328 L763.7,446.328 C753.188,437.544 745.124,422.568 738.788,412.056 C731.876,409.032 724.1,408.024 719.348,408.024 C714.74,408.024 709.988,408.456 705.38,409.608 L705.38,429.912 C711.284,429.912 716.756,431.928 721.652,434.952 L733.028,427.176 L734.9,429.048 L712.868,444.168 L708.26,444.168 C706.388,442.584 700.34,439.128 691.988,439.128 C682.34,439.128 671.252,444.888 671.252,455.688 C671.252,466.344 678.452,469.8 688.244,469.8 C691.7,469.8 695.444,468.936 699.044,468.216 L700.052,470.664 C695.876,471.672 691.988,472.392 688.388,472.392 C677.444,472.392 668.66,468.504 668.66,456.12 C668.66,439.416 687.956,429.912 702.788,429.912 Z M705.38,363.528 L705.38,406.728 C710.564,405.72 715.748,405.432 720.932,405.432 C726.26,405.432 731.3,406.44 736.34,408.168 C727.124,392.616 718.052,376.776 705.38,363.528 Z M763.556,428.04 L763.556,380.808 C759.236,382.824 754.34,383.976 749.588,383.976 C743.972,383.976 739.076,383.544 734.18,381.384 L733.892,381.672 C743.54,397.08 753.188,412.776 763.268,428.04 L763.556,428.04 Z M794.948,430.632 L794.948,399.96 C793.076,399.096 791.492,397.224 791.492,395.784 C799.7,395.784 812.516,390.744 817.124,387.144 L818.708,387.144 L831.812,404.136 L831.812,406.296 L805.892,421.128 L805.892,428.328 L817.988,434.52 L829.364,428.184 L831.38,430.2 L809.06,442.728 L806.756,442.728 C803.444,440.28 797.828,434.952 794.084,434.952 C792.212,434.952 789.62,436.536 788.612,437.112 L786.596,435.528 L794.948,430.632 Z M805.892,418.104 L822.164,408.6 L810.788,393.48 C809.348,394.056 807.332,394.92 805.892,395.352 L805.892,418.104 Z M925.556,391.464 L927.428,393.624 L918.068,399.96 L918.068,429.624 C919.652,429.768 921.668,430.776 921.668,432.072 C921.668,433.224 919.652,433.656 917.924,433.656 C900.788,433.944 891.428,439.848 888.836,442.728 L886.532,442.728 L877.748,432.648 L866.084,438.696 C863.924,439.848 859.172,442.728 857.156,442.728 C853.988,442.728 851.108,434.232 844.916,434.232 C843.188,434.232 840.596,436.536 839.3,437.544 L837.428,435.96 L846.068,429.048 L846.068,401.688 C844.196,399.816 842.756,397.944 841.748,395.784 C840.884,393.624 840.308,391.32 840.308,388.44 C840.308,373.32 860.612,360.792 873.572,359.352 L873.572,361.944 C863.06,363.96 851.252,371.736 851.252,383.832 C851.252,389.88 852.98,393.768 856.724,398.376 L878.324,387.144 L880.34,387.144 C883.508,389.88 887.54,393.336 887.54,396.072 L887.54,398.376 L908.132,387.144 L910.58,387.144 C913.748,390.312 918.356,394.776 919.652,394.92 C921.092,394.92 923.972,392.904 925.556,391.464 Z M867.956,434.664 L876.596,430.056 L876.596,400.968 L869.252,395.352 L857.012,400.968 L857.012,426.6 L867.956,434.664 Z M907.124,431.928 L907.124,400.536 L899.204,395.208 L887.54,401.4 L887.54,422.856 C887.54,426.744 890.132,429.768 898.052,434.52 L907.124,431.928 Z M985.748,387.144 L987.476,388.44 L967.748,409.608 L987.188,409.608 C988.628,409.608 989.204,410.04 989.204,411.192 C989.204,411.912 987.62,413.208 985.892,413.64 L985.892,429.624 C987.476,430.2 988.916,431.784 988.916,432.792 C988.916,433.656 988.052,433.656 986.468,433.8 C977.252,434.52 968.324,438.12 964.292,442.728 L961.988,442.728 C958.1,440.136 952.34,438.12 947.732,438.12 C943.988,438.12 940.388,440.28 937.364,442.296 L935.492,441 L956.66,418.392 L938.516,418.392 C937.364,418.392 936.068,417.816 936.068,416.808 C936.068,416.088 937.22,414.792 938.516,414.216 L940.244,413.496 L940.244,399.672 C938.228,398.088 936.356,397.512 936.356,396.36 C936.356,395.064 938.66,395.064 941.684,394.776 C948.596,394.344 955.652,391.32 961.268,387.144 L963.428,387.144 C966.596,388.728 970.484,391.032 974.66,391.032 C979.124,391.032 982.436,389.16 985.748,387.144 Z M974.948,434.088 L974.948,415.944 L962.132,415.944 L944.996,434.52 L945.284,434.808 C948.308,432.936 954.5,429.768 960.26,429.768 C964.724,429.768 970.052,431.496 972.788,434.088 L974.948,434.088 Z M951.188,411.336 L962.996,411.336 L978.548,394.488 L978.26,394.2 C973.796,396.648 968.756,399.24 963.284,399.24 C958.676,399.24 956.948,397.656 953.636,394.488 L951.188,395.64 L951.188,411.336 Z M638.996,492.12 C636.98,495 631.652,496.296 628.34,496.296 C619.988,496.296 611.78,494.712 603.572,492.984 C595.508,491.256 587.588,489.672 579.668,489.672 C564.836,489.672 543.524,498.456 543.524,515.88 C543.524,520.488 546.836,525.528 551.156,525.96 L552.02,523.368 C547.412,522.648 546.116,518.76 546.116,514.44 C546.116,502.488 560.804,498.888 569.156,498.888 C578.66,498.888 594.644,504.504 603.716,506.088 L577.796,523.656 L579.38,526.248 L589.892,519.048 L589.892,564.696 C589.892,567 588.164,568.44 587.012,569.304 L587.876,571.464 C595.94,569.88 601.988,564.696 601.988,555.192 L601.988,510.264 L607.172,506.952 C611.204,508.104 616.388,508.392 620.708,508.392 L620.708,576.216 C615.956,577.944 610.916,578.952 605.876,578.952 C583.7,578.952 565.556,563.544 565.556,540.792 C565.556,528.12 572.18,514.008 584.42,508.104 L583.268,505.944 C564.98,513.144 553.46,529.992 553.46,549.576 C553.46,576.504 576.212,588.168 599.396,588.168 C619.124,588.168 631.364,579.672 640.868,564.552 L639.14,562.824 C635.108,568.296 629.924,572.76 623.3,575.352 L623.3,508.392 C631.796,506.088 637.7,500.904 640.868,493.128 L638.996,492.12 Z M705.38,535.464 L707.108,537.48 L698.18,543.672 L698.18,573.048 C699.764,573.768 701.924,575.064 701.924,576.36 C701.924,577.224 700.484,577.656 698.468,577.656 C683.924,577.656 672.692,583.272 669.236,586.728 L666.212,586.728 C661.892,583.56 655.7,579.096 653.396,579.096 C651.092,579.096 649.94,580.824 648.068,581.832 L645.908,580.104 L654.548,574.344 L654.548,544.392 C653.252,543.96 650.66,541.944 650.66,540.936 C650.66,540.648 650.804,540.216 651.38,540.216 C660.02,540.216 676.148,536.904 683.492,531.144 L686.084,531.144 C689.108,534.024 696.308,538.92 698.9,538.92 C700.772,538.92 703.796,537.048 705.38,535.464 Z M687.236,545.976 L673.7,539.208 L665.492,541.656 L665.492,572.04 L678.74,578.808 C681.332,577.656 684.788,576.648 687.236,576.216 L687.236,545.976 Z M771.188,537.768 L762.26,544.68 L762.26,573.048 L765.572,575.208 L765.572,577.8 C764.132,577.8 762.404,577.368 760.964,577.368 C750.308,577.368 737.204,582.552 731.3,586.728 L728.42,586.728 C726.116,585.432 722.66,578.952 716.18,578.952 C714.452,578.952 712.004,580.248 710.708,581.544 L708.548,579.96 L717.908,573.048 L717.908,543.672 L714.596,541.8 L714.596,539.208 C723.38,539.208 732.596,537.912 739.94,532.584 L713.156,508.104 L720.644,500.472 L757.796,534.744 C759.38,536.328 762.404,538.92 763.7,538.92 C765.284,538.92 768.02,537.336 769.316,535.896 L771.188,537.768 Z M728.852,540.648 L728.852,572.04 L742.1,578.664 L751.316,575.496 L751.316,543.384 L741.668,534.888 C737.78,537.48 733.46,539.784 728.852,540.648 Z M797.828,578.952 L811.22,570.456 L811.22,545.256 L804.884,540.36 C800.276,542.952 795.092,544.536 789.764,544.824 L804.596,559.512 L802.868,561.384 L797.684,556.2 L793.796,558.216 C789.908,560.232 786.74,563.112 786.74,568.152 C786.74,574.2 792.788,577.512 797.828,578.952 Z M831.668,535.176 L832.964,537.192 L822.164,544.68 L822.164,572.616 L828.356,577.8 L831.812,575.496 L833.252,577.224 L820.148,586.728 L818.564,586.728 L814.532,583.128 C812.372,581.256 811.22,579.528 811.22,573.624 L789.908,586.728 L787.46,586.728 C782.276,585.144 775.796,580.392 775.796,573.768 C775.796,563.976 788.036,557.496 795.812,554.328 L783.86,542.52 C781.844,540.648 780.836,538.488 780.836,537.192 C780.836,533.448 783.572,531.144 787.172,531.144 C790.196,531.144 793.508,533.304 793.508,536.616 C793.508,538.632 792.356,540.36 790.916,541.368 L791.204,541.656 C798.26,541.224 809.348,535.752 813.092,531.144 L815.396,531.144 C816.548,534.312 821.156,538.92 824.756,538.92 C826.772,538.92 829.94,536.184 831.668,535.176 Z M896.9,535.32 L898.484,537.48 L889.988,543.384 L889.988,569.304 C889.988,594.792 850.532,580.824 850.532,594.648 C850.532,596.232 851.972,598.104 855.14,598.104 C858.74,598.104 862.916,596.808 867.38,595.512 C871.7,594.36 876.452,593.064 881.204,593.064 C887.54,593.064 893.156,596.088 893.156,603.144 C893.156,616.68 873.716,619.272 863.924,619.272 C860.324,619.272 856.58,618.696 853.412,617.688 L853.412,615.384 C857.012,616.104 860.612,616.68 864.356,616.68 C870.548,616.68 889.124,614.664 889.124,606.024 C889.124,603.864 887.108,601.992 884.084,601.992 C880.196,601.992 876.02,603.288 871.7,604.44 C867.236,605.736 862.484,607.032 857.444,607.032 C851.828,607.032 846.5,604.008 846.5,597.816 C846.5,589.464 854.708,586.584 861.62,585.432 L861.62,585.144 C851.108,583.848 845.78,579.528 845.78,570.456 L845.78,543.384 L842.036,539.064 L838.724,540.936 L837.14,539.064 L848.804,531.144 L851.54,531.144 C854.276,532.44 856.724,534.168 856.724,539.784 L856.724,547.704 L881.06,531.144 L883.94,531.144 C886.532,532.008 889.844,537.912 892.148,537.912 C894.02,537.912 895.892,536.184 896.9,535.32 Z M879.044,543.528 L873.284,539.784 L856.724,551.016 L856.724,574.488 C856.724,580.536 859.892,582.984 867.812,582.984 C875.732,582.984 879.044,580.536 879.044,574.488 L879.044,543.528 Z" id="No-News-Today"></path>
        </g>
    </g>
</svg>