<?xml version="1.0" encoding="UTF-8"?>
<svg width="136px" height="79px" viewBox="0 0 136 79" version="1.1" xmlns="http://www.w3.org/2000/svg" xmlns:xlink="http://www.w3.org/1999/xlink">
    <!-- Generator: Sketch 44.1 (41455) - http://www.bohemiancoding.com/sketch -->
    <title>Group 5</title>
    <desc>Created with Sketch.</desc>
    <defs></defs>
    <g id="Symbols" stroke="none" stroke-width="1" fill="none" fill-rule="evenodd">
        <g id="Group-5">
            <g id="Group-2" transform="translate(1.000000, 0.000000)">
                <g id="Group-5" transform="translate(0.000000, 14.000000)" stroke="#000000">
                    <polyline id="Path-4" points="71.2590039 25.9298659 91.4291215 46.0569769 128.639904 46.0569769 128.639904 5.35455704 91.1910087 5.35455704 45.6841137 51.3092228 0.425067658 51.3092228 0.425067658 0.130702143 45.6841137 0.130702143 67.2257072 21.3176677"></polyline>
                    <polyline id="Path-3" points="63.3460978 26.0467847 43 5.31684623 5.71339014 5.31684623 5.71339014 46.158942 42.7888092 46.158942 89 0.194477418 133.852931 0.194477418 133.852931 51.6693274 89.0715852 51.6693274 66.9150165 29.7211191"></polyline>
                </g>
                <path d="M54.3242188,9.10351562 L54.3242188,13 L53.0732422,13 L53.0732422,3.046875 L56.2451172,3.046875 C57.170252,3.046875 57.8971328,3.3237277 58.4257812,3.87744141 C58.9544297,4.43115511 59.21875,5.16828967 59.21875,6.08886719 C59.21875,7.04590322 58.9669622,7.78303778 58.4633789,8.30029297 C57.9597957,8.81754816 57.2500046,9.08528637 56.3339844,9.10351562 L54.3242188,9.10351562 Z M54.3242188,8.03027344 L56.2451172,8.03027344 C56.8011096,8.03027344 57.2272121,7.86393396 57.5234375,7.53125 C57.8196629,7.19856604 57.9677734,6.72233383 57.9677734,6.10253906 C57.9677734,5.50553087 57.8151057,5.02702003 57.5097656,4.66699219 C57.2044256,4.30696435 56.7851589,4.12695312 56.2519531,4.12695312 L54.3242188,4.12695312 L54.3242188,8.03027344 Z M68.3056641,8.8984375 C68.3056641,10.2565172 68.0162789,11.3024052 67.4375,12.0361328 C66.8587211,12.7698604 66.0361381,13.1367188 64.9697266,13.1367188 C63.9443308,13.1367188 63.1342803,12.7801142 62.5395508,12.0668945 C61.9448212,11.3536748 61.6360678,10.3453841 61.6132812,9.04199219 L61.6132812,7.16894531 C61.6132812,5.83820949 61.9072236,4.79573945 62.4951172,4.04150391 C63.0830108,3.28726836 63.903315,2.91015625 64.9560547,2.91015625 C66.004237,2.91015625 66.8211234,3.271318 67.4067383,3.99365234 C67.9923532,4.71598668 68.2919921,5.74706361 68.3056641,7.08691406 L68.3056641,8.8984375 Z M67.0546875,7.15527344 C67.0546875,6.1025338 66.8826515,5.31982678 66.5385742,4.80712891 C66.194497,4.29443103 65.6669957,4.03808594 64.9560547,4.03808594 C64.2679002,4.03808594 63.7472348,4.29784896 63.394043,4.81738281 C63.0408511,5.33691666 62.8619792,6.102534 62.8574219,7.11425781 L62.8574219,8.8984375 C62.8574219,9.91471862 63.0340152,10.6894505 63.387207,11.2226562 C63.7403989,11.755862 64.2679001,12.0224609 64.9697266,12.0224609 C65.671553,12.0224609 66.191079,11.7763696 66.5283203,11.2841797 C66.8655616,10.7919897 67.0410156,10.0377655 67.0546875,9.02148438 L67.0546875,7.15527344 Z M74.2480469,8.97363281 L72.4980469,8.97363281 L72.4980469,13 L71.2402344,13 L71.2402344,3.046875 L74.0292969,3.046875 C75.0045622,3.046875 75.742836,3.30094147 76.2441406,3.80908203 C76.7454452,4.31722259 76.9960938,5.06119302 76.9960938,6.04101562 C76.9960938,6.65625308 76.8605157,7.1928688 76.5893555,7.65087891 C76.3181953,8.10888901 75.9342473,8.4541004 75.4375,8.68652344 L77.3652344,12.9179688 L77.3652344,13 L76.0185547,13 L74.2480469,8.97363281 Z M72.4980469,7.90039062 L74.015625,7.90039062 C74.5397162,7.90039062 74.9578435,7.73177252 75.2700195,7.39453125 C75.5821956,7.05728998 75.7382812,6.60612262 75.7382812,6.04101562 C75.7382812,4.76496758 75.159511,4.12695312 74.0019531,4.12695312 L72.4980469,4.12695312 L72.4980469,7.90039062 Z M84.9414062,4.12695312 L82.3232422,4.12695312 L82.3232422,13 L81.0722656,13 L81.0722656,4.12695312 L78.4609375,4.12695312 L78.4609375,3.046875 L84.9414062,3.046875 L84.9414062,4.12695312 Z" id="PORT" fill="#000000"></path>
                <path d="M24.4892578,48 L14.6884766,48 L14.6884766,46.8066406 L19.9443359,39.7099609 C20.8245487,38.4996684 21.4381493,37.4967488 21.7851562,36.7011719 C22.1321632,35.905595 22.3056641,35.1269569 22.3056641,34.3652344 C22.3056641,33.2057234 22.0284858,32.2853224 21.4741211,31.6040039 C20.9197563,30.9226854 20.1516976,30.5820312 19.1699219,30.5820312 C18.128901,30.5820312 17.2994823,30.9776979 16.6816406,31.769043 C16.063799,32.5603881 15.7548828,33.5865822 15.7548828,34.8476562 L14.3457031,34.8476562 C14.3457031,33.2395753 14.7900346,31.9065808 15.6787109,30.8486328 C16.5673873,29.7906848 17.7311126,29.2617188 19.1699219,29.2617188 C20.5748768,29.2617188 21.6878214,29.6997027 22.5087891,30.5756836 C23.3297567,31.4516645 23.7402344,32.6682865 23.7402344,34.2255859 C23.7402344,35.7067131 23.0716213,37.4374901 21.734375,39.4179688 L20.921875,40.5859375 L16.4023438,46.6923828 L24.4892578,46.6923828 L24.4892578,48 Z M37.8489583,40.28125 C37.8489583,42.904961 37.4448282,44.8896417 36.6365559,46.2353516 C35.8282836,47.5810614 34.6370521,48.2539062 33.0628254,48.2539062 C31.505526,48.2539062 30.3185261,47.5831773 29.5017903,46.2416992 C28.6850544,44.9002212 28.2682292,42.9642054 28.251302,40.4335938 L28.251302,37.1835938 C28.251302,34.6106642 28.6533162,32.6471422 29.4573567,31.2929688 C30.2613972,29.9387953 31.4547446,29.2617188 33.0374348,29.2617188 C34.5947343,29.2617188 35.7796183,29.9155208 36.5921223,31.2231445 C37.4046264,32.5307683 37.8235675,34.437162 37.8489583,36.9423828 L37.8489583,40.28125 Z M36.4270833,36.9804688 C36.4270833,34.8645728 36.1456733,33.2692111 35.582845,32.1943359 C35.0200166,31.1194608 34.1715551,30.5820312 33.0374348,30.5820312 C31.9456325,30.5820312 31.1140978,31.0961863 30.5428059,32.1245117 C29.971514,33.1528372 29.6731771,34.682607 29.6477864,36.7138672 L29.6477864,40.4589844 C29.6477864,42.5240989 29.9376598,44.1215764 30.5174153,45.2514648 C31.0971708,46.3813533 31.9456324,46.9462891 33.0628254,46.9462891 C34.1461642,46.9462891 34.9734671,46.4109754 35.544759,45.340332 C36.116051,44.2696887 36.4101561,42.6976015 36.4270833,40.6240234 L36.4270833,36.9804688 Z" id="20" fill="#000000"></path>
                <path d="M101.731445,48 L100.30957,48 L100.30957,31.3818359 L96.1328125,33.2480469 L96.1328125,31.8007812 L101.490234,29.4521484 L101.731445,29.4521484 L101.731445,48 Z M119.064779,30.4042969 L112.463216,48 L110.99056,48 L117.554036,30.8359375 L108.806966,30.8359375 L108.806966,29.515625 L119.064779,29.515625 L119.064779,30.4042969 Z" id="17" fill="#000000"></path>
                <path d="M54.6875,71.6044922 L51.3242188,71.6044922 L51.3242188,76 L50.0732422,76 L50.0732422,66.046875 L55.2548828,66.046875 L55.2548828,67.1269531 L51.3242188,67.1269531 L51.3242188,70.53125 L54.6875,70.53125 L54.6875,71.6044922 Z M64.2734375,71.8984375 C64.2734375,73.2565172 63.9840524,74.3024052 63.4052734,75.0361328 C62.8264945,75.7698604 62.0039116,76.1367188 60.9375,76.1367188 C59.9121042,76.1367188 59.1020538,75.7801142 58.5073242,75.0668945 C57.9125947,74.3536748 57.6038413,73.3453841 57.5810547,72.0419922 L57.5810547,70.1689453 C57.5810547,68.8382095 57.8749971,67.7957394 58.4628906,67.0415039 C59.0507842,66.2872684 59.8710885,65.9101562 60.9238281,65.9101562 C61.9720104,65.9101562 62.7888968,66.271318 63.3745117,66.9936523 C63.9601266,67.7159867 64.2597656,68.7470636 64.2734375,70.0869141 L64.2734375,71.8984375 Z M63.0224609,70.1552734 C63.0224609,69.1025338 62.8504249,68.3198268 62.5063477,67.8071289 C62.1622704,67.294431 61.6347692,67.0380859 60.9238281,67.0380859 C60.2356736,67.0380859 59.7150083,67.297849 59.3618164,67.8173828 C59.0086245,68.3369167 58.8297526,69.102534 58.8251953,70.1142578 L58.8251953,71.8984375 C58.8251953,72.9147186 59.0017886,73.6894505 59.3549805,74.2226562 C59.7081723,74.755862 60.2356736,75.0224609 60.9375,75.0224609 C61.6393264,75.0224609 62.1588525,74.7763696 62.4960938,74.2841797 C62.833335,73.7919897 63.008789,73.0377655 63.0224609,72.0214844 L63.0224609,70.1552734 Z M68.4658203,74.9267578 L72.3691406,74.9267578 L72.3691406,76 L67.2080078,76 L67.2080078,66.046875 L68.4658203,66.046875 L68.4658203,74.9267578 Z M76.1650391,76 L74.9140625,76 L74.9140625,66.046875 L76.1650391,66.046875 L76.1650391,76 Z M85.8330078,71.8984375 C85.8330078,73.2565172 85.5436227,74.3024052 84.9648438,75.0361328 C84.3860648,75.7698604 83.5634819,76.1367188 82.4970703,76.1367188 C81.4716746,76.1367188 80.6616241,75.7801142 80.0668945,75.0668945 C79.472165,74.3536748 79.1634116,73.3453841 79.140625,72.0419922 L79.140625,70.1689453 C79.140625,68.8382095 79.4345674,67.7957394 80.0224609,67.0415039 C80.6103545,66.2872684 81.4306588,65.9101562 82.4833984,65.9101562 C83.5315808,65.9101562 84.3484671,66.271318 84.934082,66.9936523 C85.5196969,67.7159867 85.8193359,68.7470636 85.8330078,70.0869141 L85.8330078,71.8984375 Z M84.5820312,70.1552734 C84.5820312,69.1025338 84.4099952,68.3198268 84.065918,67.8071289 C83.7218407,67.294431 83.1943395,67.0380859 82.4833984,67.0380859 C81.795244,67.0380859 81.2745786,67.297849 80.9213867,67.8173828 C80.5681948,68.3369167 80.3893229,69.102534 80.3847656,70.1142578 L80.3847656,71.8984375 C80.3847656,72.9147186 80.5613589,73.6894505 80.9145508,74.2226562 C81.2677427,74.755862 81.7952439,75.0224609 82.4970703,75.0224609 C83.1988967,75.0224609 83.7184228,74.7763696 84.0556641,74.2841797 C84.3929053,73.7919897 84.5683593,73.0377655 84.5820312,72.0214844 L84.5820312,70.1552734 Z" id="FOLIO" fill="#000000"></path>
            </g>
        </g>
    </g>
</svg>